<mxfile host="app.diagrams.net" modified="2023-05-29T07:47:57.681Z" agent="Mozilla/5.0 (Macintosh; Intel Mac OS X 10_15_7) AppleWebKit/537.36 (KHTML, like Gecko) Chrome/113.0.0.0 Safari/537.36" etag="sE3eYCzX27tunN6RoU5s" version="21.3.5" type="device">
  <diagram name="Page-1" id="LaT619EXUeUrr7vSgS07">
    <mxGraphModel dx="934" dy="840" grid="1" gridSize="10" guides="1" tooltips="1" connect="1" arrows="1" fold="1" page="1" pageScale="1" pageWidth="850" pageHeight="1100" math="0" shadow="0">
      <root>
        <mxCell id="0" />
        <mxCell id="1" parent="0" />
        <mxCell id="e-86wLD9eFFRmaWTkH33-1" value="" style="sketch=0;outlineConnect=0;fontColor=#232F3E;gradientColor=none;fillColor=#232F3D;strokeColor=none;dashed=0;verticalLabelPosition=bottom;verticalAlign=top;align=center;html=1;fontSize=12;fontStyle=0;aspect=fixed;pointerEvents=1;shape=mxgraph.aws4.user;" vertex="1" parent="1">
          <mxGeometry x="110" y="280" width="80" height="80" as="geometry" />
        </mxCell>
        <mxCell id="e-86wLD9eFFRmaWTkH33-2" value="" style="outlineConnect=0;dashed=0;verticalLabelPosition=bottom;verticalAlign=top;align=center;html=1;shape=mxgraph.aws3.api_gateway;fillColor=#D9A741;gradientColor=none;" vertex="1" parent="1">
          <mxGeometry x="320" y="273.5" width="76.5" height="93" as="geometry" />
        </mxCell>
        <mxCell id="e-86wLD9eFFRmaWTkH33-3" value="" style="endArrow=classic;html=1;rounded=0;" edge="1" parent="1">
          <mxGeometry width="50" height="50" relative="1" as="geometry">
            <mxPoint x="196.36363636363637" y="304" as="sourcePoint" />
            <mxPoint x="310" y="304" as="targetPoint" />
          </mxGeometry>
        </mxCell>
        <mxCell id="e-86wLD9eFFRmaWTkH33-4" value="" style="endArrow=none;html=1;rounded=0;startArrow=classic;startFill=1;endFill=0;" edge="1" parent="1">
          <mxGeometry width="50" height="50" relative="1" as="geometry">
            <mxPoint x="195.36363636363637" y="340" as="sourcePoint" />
            <mxPoint x="309" y="340" as="targetPoint" />
          </mxGeometry>
        </mxCell>
        <mxCell id="e-86wLD9eFFRmaWTkH33-5" value="HTTP API endpoint&lt;br&gt;(Amazon API Gateway)" style="text;html=1;align=center;verticalAlign=middle;resizable=0;points=[];autosize=1;strokeColor=none;fillColor=none;" vertex="1" parent="1">
          <mxGeometry x="278" y="365" width="150" height="40" as="geometry" />
        </mxCell>
        <mxCell id="e-86wLD9eFFRmaWTkH33-7" value="Request" style="text;html=1;align=center;verticalAlign=middle;resizable=0;points=[];autosize=1;strokeColor=none;fillColor=none;" vertex="1" parent="1">
          <mxGeometry x="220" y="280" width="70" height="30" as="geometry" />
        </mxCell>
        <mxCell id="e-86wLD9eFFRmaWTkH33-8" value="Response" style="text;html=1;align=center;verticalAlign=middle;resizable=0;points=[];autosize=1;strokeColor=none;fillColor=none;" vertex="1" parent="1">
          <mxGeometry x="217" y="317" width="80" height="30" as="geometry" />
        </mxCell>
        <mxCell id="e-86wLD9eFFRmaWTkH33-10" value="" style="rounded=1;arcSize=10;dashed=1;strokeColor=#ff0000;fillColor=none;gradientColor=none;dashPattern=8 4;strokeWidth=2;" vertex="1" parent="1">
          <mxGeometry x="543" y="240" width="220" height="160" as="geometry" />
        </mxCell>
        <mxCell id="e-86wLD9eFFRmaWTkH33-21" value="" style="edgeStyle=orthogonalEdgeStyle;rounded=0;orthogonalLoop=1;jettySize=auto;html=1;" edge="1" parent="1" source="e-86wLD9eFFRmaWTkH33-9" target="e-86wLD9eFFRmaWTkH33-12">
          <mxGeometry relative="1" as="geometry" />
        </mxCell>
        <mxCell id="e-86wLD9eFFRmaWTkH33-9" value="" style="sketch=0;outlineConnect=0;fontColor=#232F3E;gradientColor=none;fillColor=#D45B07;strokeColor=none;dashed=0;verticalLabelPosition=bottom;verticalAlign=top;align=center;html=1;fontSize=12;fontStyle=0;aspect=fixed;pointerEvents=1;shape=mxgraph.aws4.lambda_function;" vertex="1" parent="1">
          <mxGeometry x="563" y="296" width="48" height="48" as="geometry" />
        </mxCell>
        <mxCell id="e-86wLD9eFFRmaWTkH33-22" value="" style="edgeStyle=orthogonalEdgeStyle;rounded=0;orthogonalLoop=1;jettySize=auto;html=1;endArrow=none;endFill=0;startArrow=classic;startFill=1;" edge="1" parent="1" source="e-86wLD9eFFRmaWTkH33-11" target="e-86wLD9eFFRmaWTkH33-9">
          <mxGeometry relative="1" as="geometry" />
        </mxCell>
        <mxCell id="e-86wLD9eFFRmaWTkH33-30" value="" style="edgeStyle=orthogonalEdgeStyle;rounded=0;orthogonalLoop=1;jettySize=auto;html=1;entryX=0;entryY=0.5;entryDx=0;entryDy=0;entryPerimeter=0;" edge="1" parent="1" source="e-86wLD9eFFRmaWTkH33-11" target="e-86wLD9eFFRmaWTkH33-27">
          <mxGeometry relative="1" as="geometry">
            <mxPoint x="811.0005459384454" y="355" as="targetPoint" />
            <Array as="points">
              <mxPoint x="800" y="355" />
              <mxPoint x="800" y="319" />
            </Array>
          </mxGeometry>
        </mxCell>
        <mxCell id="e-86wLD9eFFRmaWTkH33-11" value="" style="sketch=0;outlineConnect=0;fontColor=#232F3E;gradientColor=none;fillColor=#D45B07;strokeColor=none;dashed=0;verticalLabelPosition=bottom;verticalAlign=top;align=center;html=1;fontSize=12;fontStyle=0;aspect=fixed;pointerEvents=1;shape=mxgraph.aws4.lambda_function;" vertex="1" parent="1">
          <mxGeometry x="683" y="331" width="48" height="48" as="geometry" />
        </mxCell>
        <mxCell id="e-86wLD9eFFRmaWTkH33-12" value="" style="sketch=0;outlineConnect=0;fontColor=#232F3E;gradientColor=none;fillColor=#D45B07;strokeColor=none;dashed=0;verticalLabelPosition=bottom;verticalAlign=top;align=center;html=1;fontSize=12;fontStyle=0;aspect=fixed;pointerEvents=1;shape=mxgraph.aws4.lambda_function;" vertex="1" parent="1">
          <mxGeometry x="683" y="250" width="48" height="48" as="geometry" />
        </mxCell>
        <mxCell id="e-86wLD9eFFRmaWTkH33-17" value="" style="endArrow=classic;html=1;rounded=0;" edge="1" parent="1" target="e-86wLD9eFFRmaWTkH33-9">
          <mxGeometry width="50" height="50" relative="1" as="geometry">
            <mxPoint x="414.00363636363636" y="320" as="sourcePoint" />
            <mxPoint x="527.64" y="320" as="targetPoint" />
          </mxGeometry>
        </mxCell>
        <mxCell id="e-86wLD9eFFRmaWTkH33-19" value="Invoke" style="text;html=1;align=center;verticalAlign=middle;resizable=0;points=[];autosize=1;strokeColor=none;fillColor=none;" vertex="1" parent="1">
          <mxGeometry x="442.64" y="296" width="60" height="30" as="geometry" />
        </mxCell>
        <mxCell id="e-86wLD9eFFRmaWTkH33-23" value="StockTradingStateMachine&lt;br&gt;StepsFunction" style="text;html=1;align=center;verticalAlign=middle;resizable=0;points=[];autosize=1;strokeColor=none;fillColor=none;" vertex="1" parent="1">
          <mxGeometry x="568" y="405" width="170" height="40" as="geometry" />
        </mxCell>
        <mxCell id="e-86wLD9eFFRmaWTkH33-24" value="Checker" style="text;html=1;align=center;verticalAlign=middle;resizable=0;points=[];autosize=1;strokeColor=none;fillColor=none;" vertex="1" parent="1">
          <mxGeometry x="552" y="340" width="70" height="30" as="geometry" />
        </mxCell>
        <mxCell id="e-86wLD9eFFRmaWTkH33-25" value="Buyer" style="text;html=1;align=center;verticalAlign=middle;resizable=0;points=[];autosize=1;strokeColor=none;fillColor=none;" vertex="1" parent="1">
          <mxGeometry x="681" y="290" width="50" height="30" as="geometry" />
        </mxCell>
        <mxCell id="e-86wLD9eFFRmaWTkH33-26" value="Seller" style="text;html=1;align=center;verticalAlign=middle;resizable=0;points=[];autosize=1;strokeColor=none;fillColor=none;" vertex="1" parent="1">
          <mxGeometry x="682" y="375" width="50" height="30" as="geometry" />
        </mxCell>
        <mxCell id="e-86wLD9eFFRmaWTkH33-28" value="" style="edgeStyle=orthogonalEdgeStyle;rounded=0;orthogonalLoop=1;jettySize=auto;html=1;endArrow=none;endFill=0;startArrow=classic;startFill=1;" edge="1" parent="1" source="e-86wLD9eFFRmaWTkH33-27" target="e-86wLD9eFFRmaWTkH33-12">
          <mxGeometry relative="1" as="geometry">
            <Array as="points">
              <mxPoint x="800" y="319" />
              <mxPoint x="800" y="274" />
            </Array>
          </mxGeometry>
        </mxCell>
        <mxCell id="e-86wLD9eFFRmaWTkH33-27" value="" style="sketch=0;points=[[0,0,0],[0.25,0,0],[0.5,0,0],[0.75,0,0],[1,0,0],[0,1,0],[0.25,1,0],[0.5,1,0],[0.75,1,0],[1,1,0],[0,0.25,0],[0,0.5,0],[0,0.75,0],[1,0.25,0],[1,0.5,0],[1,0.75,0]];outlineConnect=0;fontColor=#232F3E;gradientColor=#4D72F3;gradientDirection=north;fillColor=#3334B9;strokeColor=#ffffff;dashed=0;verticalLabelPosition=bottom;verticalAlign=top;align=center;html=1;fontSize=12;fontStyle=0;aspect=fixed;shape=mxgraph.aws4.resourceIcon;resIcon=mxgraph.aws4.dynamodb;" vertex="1" parent="1">
          <mxGeometry x="920" y="281" width="78" height="78" as="geometry" />
        </mxCell>
        <mxCell id="e-86wLD9eFFRmaWTkH33-31" value="Put Data" style="text;html=1;align=center;verticalAlign=middle;resizable=0;points=[];autosize=1;strokeColor=none;fillColor=none;" vertex="1" parent="1">
          <mxGeometry x="822" y="298" width="70" height="30" as="geometry" />
        </mxCell>
        <mxCell id="e-86wLD9eFFRmaWTkH33-32" value="" style="sketch=0;outlineConnect=0;fontColor=#232F3E;gradientColor=none;fillColor=#BF0816;strokeColor=none;dashed=0;verticalLabelPosition=bottom;verticalAlign=top;align=center;html=1;fontSize=12;fontStyle=0;aspect=fixed;pointerEvents=1;shape=mxgraph.aws4.permissions;" vertex="1" parent="1">
          <mxGeometry x="457" y="200" width="23.84" height="30" as="geometry" />
        </mxCell>
        <mxCell id="e-86wLD9eFFRmaWTkH33-33" value="Permissions&lt;br&gt;(IAM roles)" style="text;html=1;align=center;verticalAlign=middle;resizable=0;points=[];autosize=1;strokeColor=none;fillColor=none;" vertex="1" parent="1">
          <mxGeometry x="425" y="230" width="90" height="40" as="geometry" />
        </mxCell>
        <mxCell id="e-86wLD9eFFRmaWTkH33-34" value="" style="sketch=0;outlineConnect=0;fontColor=#232F3E;gradientColor=none;fillColor=#BF0816;strokeColor=none;dashed=0;verticalLabelPosition=bottom;verticalAlign=top;align=center;html=1;fontSize=12;fontStyle=0;aspect=fixed;pointerEvents=1;shape=mxgraph.aws4.permissions;" vertex="1" parent="1">
          <mxGeometry x="851" y="200" width="23.84" height="30" as="geometry" />
        </mxCell>
        <mxCell id="e-86wLD9eFFRmaWTkH33-35" value="Permissions&lt;br&gt;(IAM roles)" style="text;html=1;align=center;verticalAlign=middle;resizable=0;points=[];autosize=1;strokeColor=none;fillColor=none;" vertex="1" parent="1">
          <mxGeometry x="819" y="230" width="90" height="40" as="geometry" />
        </mxCell>
        <mxCell id="e-86wLD9eFFRmaWTkH33-36" value="DynamoDB" style="text;html=1;align=center;verticalAlign=middle;resizable=0;points=[];autosize=1;strokeColor=none;fillColor=none;" vertex="1" parent="1">
          <mxGeometry x="918" y="359" width="80" height="30" as="geometry" />
        </mxCell>
        <mxCell id="e-86wLD9eFFRmaWTkH33-37" value="" style="rounded=0;arcSize=10;dashed=0;fillColor=none;gradientColor=none;strokeWidth=2;glass=1;" vertex="1" parent="1">
          <mxGeometry x="90" y="175" width="940" height="285" as="geometry" />
        </mxCell>
      </root>
    </mxGraphModel>
  </diagram>
</mxfile>
